<svg xmlns="http://www.w3.org/2000/svg" viewBox="0 0 785.78 248.5">
  <defs>
    <style>
      .a {
        fill: #ebe4d2;
      }

      .b {
        fill: #ef4e23;
      }

      .c {
        fill: #e58b24;
      }

      .d {
        fill: #005ba5;
      }

      .e {
        fill: #131626;
      }

      .f {
        fill: #f7b951;
      }
    </style>
  </defs>
  <g>
    <g>
      <path class="a" d="M66.67,100.87c-4.15-6.13-13.52-11-24.51-11C19.1,89.88,0,110.06,0,135.29s19.1,45.4,42.16,45.4c11,0,20.36-4.86,24.51-11v10.63c0,12.8-8.65,18.56-18,18.56-9.19,0-15.32-3.6-18.2-12.07H4c1.44,19.46,18.2,34.59,44,34.59,23.24,0,45.94-11.71,45.94-45V91.86H66.67ZM48.11,156c-11,0-20.72-8.11-20.72-20.72s9.73-20.73,20.72-20.73,20.72,8.11,20.72,20.73S59.1,156,48.11,156"/>
      <rect class="a" x="105.4" y="91.86" width="27.21" height="90.09"/>
      <path class="a" d="M118.92,45.74A16.94,16.94,0,1,0,136,62.67a17,17,0,0,0-17.12-16.93"/>
      <rect class="a" x="144.15" y="46.82" width="27.21" height="135.14"/>
      <path class="a" d="M234.6,89.88c-12.07,0-20.9,6.13-24.51,11v-54h-27.2V182h27.2v-9c3.61,4.86,12.44,11,24.51,11,23.61,0,41.81-21.45,41.81-47s-18.2-47-41.81-47m-6.13,69.37c-12.25,0-20.54-9.37-20.54-22.34s8.29-22.35,20.54-22.35S249,123.94,249,136.91s-8.28,22.34-20.54,22.34"/>
      <path class="a" d="M328.25,89.88c-27.2,0-47.74,19.82-47.74,46.85,0,27.39,19.82,47.2,47.74,47.2,22.71,0,41.44-13.15,47.21-31.89H347c-2.16,4.87-9.36,8.47-17.3,8.47-14.59,0-21.44-8.11-22.7-17.29h69.37c1.09-35.68-22.16-53.34-48.11-53.34m-20.54,36c2.35-8.29,9-14.42,19.82-14.42,7,0,15.86,3.61,18.74,14.42Z"/>
      <path class="a" d="M443.59,91.86H428.52a15.81,15.81,0,0,0-13.59,7.74l-3.43,5.78V91.86H384.29V182H411.5V139.25a34.58,34.58,0,0,1,.44-5.61v-.15a22.48,22.48,0,0,1,22-18h9.62Z"/>
      <path class="a" d="M501.41,115.47V91.86H476.19v-25H449V149C449,171.86,465.2,183,485.2,183a61.4,61.4,0,0,0,16.21-1.8V157.09a26.52,26.52,0,0,1-9.91,1.62c-10.81,0-15.31-4.51-15.31-15.31V115.47Z"/>
    </g>
    <g>
      <path class="b" d="M731.37,90.06h0a45,45,0,0,1-40.89-63.9H674.76A91.84,91.84,0,0,0,582.92,118h0a91.84,91.84,0,0,0,91.84,91.84H677V129.56h54.41Z"/>
      <path class="c" d="M690.48,26.16a45,45,0,0,0,40.89,63.9h0V26.16Z"/>
      <g>
        <path class="d" d="M731.37,129.56v80.29H677V248.5h11.66c53.66,0,97.16-38.09,97.16-99.2V129.56Z"/>
        <polygon class="e" points="731.37 129.56 676.97 129.56 676.97 209.85 676.96 209.85 676.96 209.85 731.37 209.85 731.37 129.56"/>
      </g>
      <path class="f" d="M731.37,0a45,45,0,0,0-40.89,26.16h40.89v63.9a45,45,0,0,0,0-90.06Z"/>
    </g>
  </g>
</svg>
